<svg id="Vrstva_1" data-name="Vrstva 1" xmlns="http://www.w3.org/2000/svg" viewBox="0 0 876 200"><defs><style>.cls-1{fill:#0051ff;}</style></defs><path class="cls-1" d="M94.37,63.62a59.39,59.39,0,0,1,0,29.42l-49.44-.8L1.72,93a63.74,63.74,0,0,1,0-29.42l44.4.66ZM22.53,48.91q0-13.92,5.1-19.42T44.93,24H61.1L63,25.84V153.48q0,6,2.72,9.21t9.08,3.24H89.59a59.41,59.41,0,0,1,3.32,19.62,44.87,44.87,0,0,1-.27,4.77,30.63,30.63,0,0,1-.79,4.51Q84.56,195.9,75,196.68t-17.5.8q-18,0-26.51-8.95t-8.48-27.9Z"/><path class="cls-1" d="M92.51,83.1a40.31,40.31,0,0,1,5-11.93,34.42,34.42,0,0,1,7.62-9.41q18.3,1.34,27.64,13.59t11.2,32.14v88.66a94.53,94.53,0,0,1-9.88,1.2q-5.51.39-10.8.39c-3.45,0-7-.13-10.67-.39s-7-.67-10.14-1.2V110.54q0-11.67-3.38-18.43T92.51,83.1Zm97.15-18.82A85,85,0,0,1,187,82.9,73.56,73.56,0,0,1,179.32,103a36.32,36.32,0,0,0-6.89-1.85q-3.31-.54-6.76-.93a22.9,22.9,0,0,0-9.54,1.92,24.68,24.68,0,0,0-7.75,5.63,43.84,43.84,0,0,0-6.5,9.15,109.47,109.47,0,0,0-5.76,12.45l-4.64-6.22a166.59,166.59,0,0,1,2.78-21.74,76.8,76.8,0,0,1,6.56-19.75,37.91,37.91,0,0,1,12-14.25Q160.37,62,172,62a59.57,59.57,0,0,1,9.88.66C184.42,63.13,187,63.66,189.66,64.28Z"/><path class="cls-1" d="M188.6,160q0-15.9,7.42-26.11a44.19,44.19,0,0,1,19.42-15.11,67,67,0,0,1,25.64-4.9q6,0,15,.26a99,99,0,0,1,16.36,1.73v26.24a69.74,69.74,0,0,0-13.71-1.53q-8-.2-13.32-.19-8.75,0-12.66,4.7t-3.91,12.13A12.33,12.33,0,0,0,232.2,166a11.64,11.64,0,0,0,8.88,3.51q8,0,16.24-5.7a45.54,45.54,0,0,0,13.85-15.63L277,174.42a121.58,121.58,0,0,1-11.79,12,58.88,58.88,0,0,1-15.51,9.81,51.41,51.41,0,0,1-20.81,3.91q-13.65,0-22.6-6.1A38.13,38.13,0,0,1,193,178.72,43.37,43.37,0,0,1,188.6,160Zm120.21,17.1a37,37,0,0,1-4.9,11.79,35.27,35.27,0,0,1-7.69,9.41q-11.67-.27-19.28-5.3a35,35,0,0,1-11.67-12.39A45.87,45.87,0,0,1,260,166.2V109.47q0-8.34-4.18-12.59t-13.19-4.24a71.68,71.68,0,0,0-18.55,2.72q-10.08,2.72-20.54,5.77a35.47,35.47,0,0,1-6.83-13.06,76.07,76.07,0,0,1-3.11-15.71,144.48,144.48,0,0,1,19.74-6.22,199.3,199.3,0,0,1,21.61-4,153.15,153.15,0,0,1,19.35-1.39A59.77,59.77,0,0,1,276.67,65a39,39,0,0,1,17.76,14.25q7,9.93,7,26.64v53.94a26.3,26.3,0,0,0,1.79,10.07A16.29,16.29,0,0,0,308.81,177.07Z"/><path class="cls-1" d="M343.26,62q11.94,0,18,8.08t6,22v104a94,94,0,0,1-9.87,1.2q-5.5.39-10.8.39t-10.74-.39a100,100,0,0,1-10.07-1.2V63.88L327.63,62Zm96.49,101a67.63,67.63,0,0,0,1.46,14.51,31.46,31.46,0,0,0,5.17,11.86,38.76,38.76,0,0,1-11.4,6.36,41,41,0,0,1-14.45,2.52q-12.45,0-17.36-6.62t-4.9-19.09V116.23c0-6-.78-10.45-2.32-13.32s-4.53-4.3-8.95-4.3a25.48,25.48,0,0,0-9.54,2.25,36.28,36.28,0,0,0-10.74,7.22,45.94,45.94,0,0,0-9.41,13.32V85.09a142.09,142.09,0,0,1,20.22-16.3,44.17,44.17,0,0,1,25.11-7.29q12.06,0,20.34,6a36.92,36.92,0,0,1,12.53,16.63,65.64,65.64,0,0,1,4.24,24.52Z"/><path d="M511.85,196.15a94.65,94.65,0,0,1-9.87,1.2q-5.5.39-10.81.39t-10.67-.39q-5.49-.4-10.14-1.2V108.41a20.55,20.55,0,0,0-2.71-11Q464.93,93,457.91,93h-4A54.58,54.58,0,0,1,452.21,79a71.28,71.28,0,0,1,.4-7.35,48.94,48.94,0,0,1,1.32-7.49q6.09-.68,12.53-1t10.8-.33H483q13.25,0,21.07,8.55t7.82,23.13ZM462.41,26.64a39.84,39.84,0,0,1,3-15.51,38.82,38.82,0,0,1,9-2.91A50.46,50.46,0,0,1,485.21,7a53.36,53.36,0,0,1,11,1.19A31.59,31.59,0,0,1,505,11.13,44.7,44.7,0,0,1,507.21,19a40.7,40.7,0,0,1,.8,7.69A39.44,39.44,0,0,1,505,42a31.23,31.23,0,0,1-8.75,2.92,54.06,54.06,0,0,1-11,1.19A55.09,55.09,0,0,1,474.27,45a28.78,28.78,0,0,1-8.81-3A39.44,39.44,0,0,1,462.41,26.64Z"/><path d="M554,62q11.93,0,18,8.08t6,22v104a94.31,94.31,0,0,1-9.87,1.2q-5.5.39-10.81.39t-10.73-.39a100,100,0,0,1-10.07-1.2V63.88L538.35,62Zm96.49,101a67.63,67.63,0,0,0,1.46,14.51,31.61,31.61,0,0,0,5.16,11.86,38.7,38.7,0,0,1-11.39,6.36,41.07,41.07,0,0,1-14.45,2.52q-12.46,0-17.36-6.62T609,172.56V116.23c0-6-.77-10.45-2.32-13.32s-4.52-4.3-8.94-4.3a25.48,25.48,0,0,0-9.54,2.25,36,36,0,0,0-10.74,7.22A45.94,45.94,0,0,0,568,121.4V85.09a141.45,141.45,0,0,1,20.21-16.3,44.23,44.23,0,0,1,25.12-7.29q12.06,0,20.34,6a37,37,0,0,1,12.53,16.63,65.84,65.84,0,0,1,4.24,24.52Z"/><path d="M702.56,64.15l52.09-.53a69.73,69.73,0,0,1,1.46,14.44q0,3.45-.33,7.49A52.23,52.23,0,0,1,754.65,93L702,92.24l-42.41.8a58.19,58.19,0,0,1-1.19-7.49q-.4-4-.4-7.49a64,64,0,0,1,1.59-14.44Zm-20.14,17q-.79-8.74-2.12-17.29A113.74,113.74,0,0,1,679,46.26,47.53,47.53,0,0,1,684.8,22.6,43.56,43.56,0,0,1,701,6.1Q711.31,0,725.23,0a105.64,105.64,0,0,1,23.06,2.39,135.39,135.39,0,0,1,17.49,4.9,44,44,0,0,1-2.32,15.11q-2.58,8.09-6.56,12.19-4-1.06-9.54-2.25a51.44,51.44,0,0,0-10.87-1.19q-8.47,0-13.18,4.57T718.6,49.17a89.66,89.66,0,0,0,1.59,16.1q1.59,8.69,2.65,16.11V196.15a123.52,123.52,0,0,1-20.54,1.59,119.24,119.24,0,0,1-19.88-1.59Z"/><path d="M876.19,130q0,21.21-7,37a54.36,54.36,0,0,1-20.67,24.46q-13.65,8.67-33.53,8.68-20.16,0-33.8-8.75a53.92,53.92,0,0,1-20.54-24.52q-6.9-15.77-6.9-36.84,0-21.34,7-37.05a54,54,0,0,1,20.61-24.38Q794.94,59.9,815,59.9t33.73,8.75a54.64,54.64,0,0,1,20.54,24.46Q876.19,108.82,876.19,130Zm-79.92,0a141.14,141.14,0,0,0,1.26,19.74q1.26,8.9,5.23,14.12t12.2,5.23c5.38,0,9.43-1.74,12.12-5.23s4.46-8.19,5.3-14.12A141.14,141.14,0,0,0,833.64,130a142.31,142.31,0,0,0-1.26-19.88q-1.26-8.88-5.3-14.12c-2.69-3.49-6.74-5.23-12.12-5.23s-9.55,1.74-12.2,5.23-4.39,8.2-5.23,14.12A142.31,142.31,0,0,0,796.27,130Z"/></svg>